<svg width="11" height="7" viewBox="0 0 11 7" fill="none" xmlns="http://www.w3.org/2000/svg">
<path fill-rule="evenodd" clip-rule="evenodd" d="M0.292787 0.553496C0.480314 0.35933 0.734622 0.250253 0.999786 0.250253C1.26495 0.250253 1.51926 0.35933 1.70679 0.553496L4.99979 3.9641L8.29279 0.553496C8.38503 0.454575 8.49538 0.375672 8.61738 0.321391C8.73939 0.26711 8.87061 0.238539 9.00339 0.237344C9.13616 0.236149 9.26784 0.262354 9.39074 0.314431C9.51364 0.366507 9.62529 0.443412 9.71918 0.540658C9.81307 0.637904 9.88733 0.753544 9.93761 0.880829C9.98789 1.00811 10.0132 1.1445 10.012 1.28202C10.0109 1.41954 9.9833 1.55545 9.93089 1.68181C9.87848 1.80817 9.8023 1.92245 9.70679 2.018L5.70679 6.16085C5.51926 6.35502 5.26495 6.4641 4.99979 6.4641C4.73462 6.4641 4.48031 6.35502 4.29279 6.16085L0.292787 2.018C0.105316 1.82377 0 1.56038 0 1.28575C0 1.01111 0.105316 0.747721 0.292787 0.553496Z" fill="black"/>
</svg>
