<svg width="119" height="455" viewBox="0 0 119 455" fill="none" xmlns="http://www.w3.org/2000/svg">
<mask id="path-1-outside-1_206_847" maskUnits="userSpaceOnUse" x="-1" y="-1" width="121" height="457" fill="black">
<rect fill="white" x="-1" y="-1" width="121" height="457"/>
<path d="M48.688 374C25.28 374 8.704 391.696 8.704 413.984C8.704 436.048 25.28 454.08 48.688 454.08C72.208 454.08 88.784 436.048 88.784 413.984C88.784 391.808 72.208 374 48.688 374ZM48.688 437.952C32.784 437.952 22.816 428.208 22.816 413.984C22.816 399.872 32.784 390.128 48.688 390.128C64.592 390.128 74.784 399.872 74.784 413.984C74.784 428.208 64.592 437.952 48.688 437.952ZM57.088 346.095C45.104 346.095 41.52 340.495 41.52 331.199V327.055H25.056C25.056 335.679 29.2 342.175 35.584 346.095H25.952V361.775H88V346.095H57.088ZM56.752 319.965C76.128 319.965 89.008 307.421 89.008 291.629C89.008 281.885 84.192 274.829 78.816 271.133H88.448C99.984 271.133 104.912 277.853 104.912 286.477C104.912 294.317 101.216 300.141 95.616 301.709V317.277C109.84 315.709 118.576 303.501 118.576 286.029C118.576 265.645 105.248 255.341 88.448 255.341H25.952L25.952 271.133H34.8C29.424 274.829 24.944 281.885 24.944 291.629C24.944 307.421 37.376 319.965 56.752 319.965ZM56.976 271.133C68.736 271.133 75.232 278.973 75.232 287.597C75.232 295.997 68.512 303.949 56.752 303.949C44.992 303.949 38.72 295.997 38.72 287.597C38.72 278.973 45.216 271.133 56.976 271.133ZM56.752 243.499C76.128 243.499 89.008 230.955 89.008 215.275C89.008 205.419 84.304 198.363 78.928 194.667H88V178.875H25.952L25.952 194.667H34.8C29.648 198.363 24.944 205.195 24.944 215.163C24.944 230.955 37.376 243.499 56.752 243.499ZM56.976 194.667C68.736 194.667 75.232 202.507 75.232 211.131C75.232 219.531 68.512 227.483 56.752 227.483C44.992 227.483 38.72 219.531 38.72 211.131C38.72 202.507 45.216 194.667 56.976 194.667ZM88 119.545V103.865H51.6C34.464 103.865 25.056 114.169 25.056 128.617C25.056 136.569 28.416 143.289 33.68 147.321H25.952V163.001H88V147.321H53.728C43.76 147.321 38.384 141.833 38.384 133.321C38.384 125.033 43.76 119.545 53.728 119.545H88ZM88 88.3939V72.7139H25.952L25.952 88.3939H88ZM18.56 80.4419C18.56 74.9539 14.528 70.8099 9.376 70.8099C4.224 70.8099 0.191996 74.9539 0.191996 80.4419C0.191996 86.0419 4.224 90.0739 9.376 90.0739C14.528 90.0739 18.56 86.0419 18.56 80.4419ZM56.976 60.694C76.464 60.694 89.008 47.926 89.008 30.006C89.008 14.55 80.272 4.13401 67.056 0.774013V17.686C72.656 19.59 75.568 23.622 75.568 30.118C75.568 38.854 69.072 44.678 56.976 44.678C44.88 44.678 38.272 38.854 38.272 30.118C38.272 23.622 41.632 19.478 46.896 17.686V0.774013C33.008 4.13401 24.944 14.55 24.944 30.006C24.944 47.926 37.488 60.694 56.976 60.694Z"/>
</mask>
<path d="M48.688 373C24.7093 373 7.704 391.162 7.704 413.984H9.704C9.704 392.23 25.8507 375 48.688 375V373ZM7.704 413.984C7.704 436.574 24.7021 455.08 48.688 455.08V453.08C25.8579 453.08 9.704 435.522 9.704 413.984H7.704ZM48.688 455.08C72.784 455.08 89.784 436.576 89.784 413.984H87.784C87.784 435.52 71.632 453.08 48.688 453.08V455.08ZM89.784 413.984C89.784 391.274 72.7786 373 48.688 373V375C71.6374 375 87.784 392.342 87.784 413.984H89.784ZM48.688 436.952C40.9406 436.952 34.7342 434.582 30.4731 430.574C26.2171 426.57 23.816 420.853 23.816 413.984H21.816C21.816 421.339 24.3989 427.606 29.1028 432.03C33.8018 436.45 40.5314 438.952 48.688 438.952V436.952ZM23.816 413.984C23.816 407.173 26.2156 401.484 30.4719 397.494C34.7334 393.498 40.9406 391.128 48.688 391.128V389.128C40.5314 389.128 33.8026 391.63 29.1041 396.034C24.4004 400.444 21.816 406.683 21.816 413.984H23.816ZM48.688 391.128C56.436 391.128 62.7018 393.499 67.0206 397.498C71.3332 401.491 73.784 407.18 73.784 413.984H75.784C75.784 406.676 73.1388 400.437 68.3794 396.03C63.6262 391.629 56.844 389.128 48.688 389.128V391.128ZM73.784 413.984C73.784 420.847 71.3317 426.563 67.0194 430.569C62.701 434.581 56.4359 436.952 48.688 436.952V438.952C56.8441 438.952 63.627 436.451 68.3806 432.035C73.1403 427.613 75.784 421.345 75.784 413.984H73.784ZM41.52 327.055H42.52V326.055H41.52V327.055ZM25.056 327.055V326.055H24.056V327.055H25.056ZM35.584 346.095V347.095H39.1237L36.1073 345.242L35.584 346.095ZM25.952 346.095V345.095H24.952V346.095H25.952ZM25.952 361.775H24.952V362.775H25.952V361.775ZM88 361.775V362.775H89V361.775H88ZM88 346.095H89V345.095H88V346.095ZM57.088 345.095C51.2297 345.095 47.666 343.724 45.5407 341.45C43.4033 339.162 42.52 335.75 42.52 331.199H40.52C40.52 335.943 41.4287 339.979 44.0793 342.815C46.742 345.665 50.9623 347.095 57.088 347.095V345.095ZM42.52 331.199V327.055H40.52V331.199H42.52ZM41.52 326.055H25.056V328.055H41.52V326.055ZM24.056 327.055C24.056 336.043 28.3956 342.854 35.0607 346.947L36.1073 345.242C30.0044 341.495 26.056 335.314 26.056 327.055H24.056ZM35.584 345.095H25.952V347.095H35.584V345.095ZM24.952 346.095V361.775H26.952V346.095H24.952ZM25.952 362.775H88V360.775H25.952V362.775ZM89 361.775V346.095H87V361.775H89ZM88 345.095H57.088V347.095H88V345.095ZM78.816 271.133V270.133H75.5963L78.2495 271.957L78.816 271.133ZM95.616 301.709L95.3464 300.746L94.616 300.951V301.709H95.616ZM95.616 317.277H94.616V318.394L95.7256 318.271L95.616 317.277ZM25.952 255.341V254.341H24.952V255.341H25.952ZM25.952 271.133H24.952V272.133H25.952V271.133ZM34.8 271.133L35.3665 271.957L38.0197 270.133H34.8V271.133ZM56.752 320.965C76.5848 320.965 90.008 308.064 90.008 291.629H88.008C88.008 306.778 75.6712 318.965 56.752 318.965V320.965ZM90.008 291.629C90.008 281.534 85.0116 274.179 79.3825 270.309L78.2495 271.957C83.3724 275.479 88.008 282.236 88.008 291.629H90.008ZM78.816 272.133H88.448V270.133H78.816V272.133ZM88.448 272.133C94.0201 272.133 97.8487 273.751 100.288 276.267C102.735 278.791 103.912 282.349 103.912 286.477H105.912C105.912 281.981 104.625 277.868 101.724 274.875C98.8153 271.875 94.4119 270.133 88.448 270.133V272.133ZM103.912 286.477C103.912 294.039 100.37 299.34 95.3464 300.746L95.8856 302.672C102.062 300.943 105.912 294.595 105.912 286.477H103.912ZM94.616 301.709V317.277H96.616V301.709H94.616ZM95.7256 318.271C103.119 317.456 109.111 313.864 113.238 308.207C117.352 302.565 119.576 294.925 119.576 286.029H117.576C117.576 294.606 115.432 301.805 111.622 307.028C107.825 312.234 102.337 315.53 95.5064 316.283L95.7256 318.271ZM119.576 286.029C119.576 275.609 116.163 267.657 110.498 262.314C104.844 256.981 97.0485 254.341 88.448 254.341V256.341C96.6475 256.341 103.916 258.854 109.126 263.769C114.325 268.674 117.576 276.065 117.576 286.029H119.576ZM88.448 254.341H25.952V256.341H88.448V254.341ZM24.952 255.341L24.952 271.133H26.952L26.952 255.341H24.952ZM25.952 272.133H34.8V270.133H25.952V272.133ZM34.2335 270.309C28.5806 274.196 23.944 281.563 23.944 291.629H25.944C25.944 282.208 30.2674 275.463 35.3665 271.957L34.2335 270.309ZM23.944 291.629C23.944 308.046 36.8996 320.965 56.752 320.965V318.965C37.8524 318.965 25.944 306.796 25.944 291.629H23.944ZM56.976 272.133C62.6252 272.133 66.9276 274.011 69.8134 276.845C72.7049 279.684 74.232 283.538 74.232 287.597H76.232C76.232 283.033 74.5111 278.654 71.2146 275.418C67.9124 272.175 63.0868 270.133 56.976 270.133V272.133ZM74.232 287.597C74.232 295.411 67.9941 302.949 56.752 302.949V304.949C69.0299 304.949 76.232 296.583 76.232 287.597H74.232ZM56.752 302.949C51.1078 302.949 46.8638 301.047 44.0331 298.216C41.1944 295.377 39.72 291.549 39.72 287.597H37.72C37.72 292.045 39.3816 296.393 42.6189 299.63C45.8642 302.876 50.6362 304.949 56.752 304.949V302.949ZM39.72 287.597C39.72 283.538 41.247 279.684 44.1386 276.845C47.0244 274.011 51.3268 272.133 56.976 272.133V270.133C50.8652 270.133 46.0396 272.175 42.7374 275.418C39.4409 278.654 37.72 283.033 37.72 287.597H39.72ZM78.928 194.667V193.667H75.7083L78.3615 195.491L78.928 194.667ZM88 194.667V195.667H89V194.667H88ZM88 178.875H89V177.875H88V178.875ZM25.952 178.875V177.875H24.952V178.875H25.952ZM25.952 194.667H24.952V195.667H25.952V194.667ZM34.8 194.667L35.3829 195.48L37.9095 193.667H34.8V194.667ZM56.752 244.499C76.5821 244.499 90.008 231.601 90.008 215.275H88.008C88.008 230.309 75.6739 242.499 56.752 242.499V244.499ZM90.008 215.275C90.008 205.08 85.1337 197.72 79.4945 193.843L78.3615 195.491C83.4743 199.006 88.008 205.758 88.008 215.275H90.008ZM78.928 195.667H88V193.667H78.928V195.667ZM89 194.667V178.875H87V194.667H89ZM88 177.875H25.952V179.875H88V177.875ZM24.952 178.875L24.952 194.667H26.952L26.952 178.875H24.952ZM25.952 195.667H34.8V193.667H25.952V195.667ZM34.2171 193.854C28.8222 197.725 23.944 204.85 23.944 215.163H25.944C25.944 205.54 30.4738 199.001 35.3829 195.48L34.2171 193.854ZM23.944 215.163C23.944 231.58 36.8996 244.499 56.752 244.499V242.499C37.8524 242.499 25.944 230.33 25.944 215.163H23.944ZM56.976 195.667C62.6252 195.667 66.9276 197.545 69.8134 200.379C72.7049 203.218 74.232 207.072 74.232 211.131H76.232C76.232 206.566 74.5111 202.188 71.2146 198.951C67.9124 195.709 63.0868 193.667 56.976 193.667V195.667ZM74.232 211.131C74.232 218.945 67.9941 226.483 56.752 226.483V228.483C69.0299 228.483 76.232 220.117 76.232 211.131H74.232ZM56.752 226.483C51.1078 226.483 46.8638 224.581 44.0331 221.75C41.1944 218.911 39.72 215.083 39.72 211.131H37.72C37.72 215.579 39.3816 219.927 42.6189 223.164C45.8642 226.409 50.6362 228.483 56.752 228.483V226.483ZM39.72 211.131C39.72 207.072 41.247 203.218 44.1386 200.379C47.0244 197.545 51.3268 195.667 56.976 195.667V193.667C50.8652 193.667 46.0396 195.709 42.7374 198.951C39.4409 202.188 37.72 206.566 37.72 211.131H39.72ZM88 119.545V120.545H89V119.545H88ZM88 103.865H89V102.865H88V103.865ZM33.68 147.321V148.321H36.6301L34.2881 146.527L33.68 147.321ZM25.952 147.321V146.321H24.952V147.321H25.952ZM25.952 163.001H24.952V164.001H25.952V163.001ZM88 163.001V164.001H89V163.001H88ZM88 147.321H89V146.321H88V147.321ZM89 119.545V103.865H87V119.545H89ZM88 102.865H51.6V104.865H88V102.865ZM51.6 102.865C42.83 102.865 35.9229 105.505 31.2039 110.107C26.4842 114.709 24.056 121.172 24.056 128.617H26.056C26.056 121.613 28.3318 115.701 32.6001 111.539C36.8691 107.376 43.234 104.865 51.6 104.865V102.865ZM24.056 128.617C24.056 136.853 27.5399 143.877 33.0719 148.115L34.2881 146.527C29.2921 142.7 26.056 136.285 26.056 128.617H24.056ZM33.68 146.321H25.952V148.321H33.68V146.321ZM24.952 147.321V163.001H26.952V147.321H24.952ZM25.952 164.001H88V162.001H25.952V164.001ZM89 163.001V147.321H87V163.001H89ZM88 146.321H53.728V148.321H88V146.321ZM53.728 146.321C48.9226 146.321 45.3589 145 43.0031 142.784C40.6545 140.575 39.384 137.362 39.384 133.321H37.384C37.384 137.792 38.8015 141.578 41.6329 144.241C44.4571 146.898 48.5654 148.321 53.728 148.321V146.321ZM39.384 133.321C39.384 129.399 40.6498 126.241 42.9989 124.057C45.356 121.866 48.9227 120.545 53.728 120.545V118.545C48.5653 118.545 44.4599 119.968 41.6371 122.592C38.8062 125.224 37.384 128.954 37.384 133.321H39.384ZM53.728 120.545H88V118.545H53.728V120.545ZM88 88.3939V89.3939H89V88.3939H88ZM88 72.7139H89V71.7139H88V72.7139ZM25.952 72.7139V71.7139H24.952V72.7139H25.952ZM25.952 88.3939H24.952V89.3939H25.952V88.3939ZM89 88.3939V72.7139H87V88.3939H89ZM88 71.7139H25.952L25.952 73.7139H88V71.7139ZM24.952 72.7139L24.952 88.3939H26.952L26.952 72.7139H24.952ZM25.952 89.3939H88V87.3939H25.952V89.3939ZM19.56 80.4419C19.56 74.4411 15.119 69.8099 9.376 69.8099V71.8099C13.937 71.8099 17.56 75.4666 17.56 80.4419H19.56ZM9.376 69.8099C3.63301 69.8099 -0.808004 74.4411 -0.808004 80.4419H1.192C1.192 75.4666 4.81499 71.8099 9.376 71.8099V69.8099ZM-0.808004 80.4419C-0.808004 86.5625 3.64055 91.0739 9.376 91.0739V89.0739C4.80744 89.0739 1.192 85.5213 1.192 80.4419H-0.808004ZM9.376 91.0739C15.1114 91.0739 19.56 86.5625 19.56 80.4419H17.56C17.56 85.5213 13.9446 89.0739 9.376 89.0739V91.0739ZM67.056 0.774017L67.3024 -0.19516L66.056 -0.512024V0.774017H67.056ZM67.056 17.686H66.056V18.4022L66.7341 18.6328L67.056 17.686ZM46.896 17.686L47.2183 18.6327L47.896 18.4019V17.686H46.896ZM46.896 0.774017H47.896V-0.496765L46.6608 -0.197937L46.896 0.774017ZM56.976 61.694C66.9426 61.694 75.2136 58.4251 80.9981 52.7861C86.7834 47.1461 90.008 39.206 90.008 30.006H88.008C88.008 38.726 84.9606 46.1299 79.6019 51.354C74.2424 56.5789 66.4974 59.694 56.976 59.694V61.694ZM90.008 30.006C90.008 22.0846 87.7667 15.3942 83.7788 10.2419C79.7916 5.09064 74.1023 1.53363 67.3024 -0.19516L66.8096 1.74319C73.2257 3.37439 78.5124 6.70538 82.1972 11.4661C85.8813 16.2258 88.008 22.4714 88.008 30.006H90.008ZM66.056 0.774017V17.686H68.056V0.774017H66.056ZM66.7341 18.6328C69.3763 19.5312 71.3088 20.9031 72.5904 22.7501C73.8746 24.6008 74.568 27.0191 74.568 30.118H76.568C76.568 26.7209 75.8054 23.8752 74.2336 21.6099C72.6591 19.3409 70.3357 17.7449 67.3779 16.7392L66.7341 18.6328ZM74.568 30.118C74.568 34.2176 73.0555 37.5595 70.1774 39.8979C67.2743 42.2567 62.8763 43.678 56.976 43.678V45.678C63.1717 45.678 68.0697 44.1873 71.4386 41.4501C74.8325 38.6926 76.568 34.7545 76.568 30.118H74.568ZM56.976 43.678C51.0758 43.678 46.6476 42.2567 43.7152 39.8952C40.8083 37.5542 39.272 34.2119 39.272 30.118H37.272C37.272 34.7602 39.0397 38.6979 42.4608 41.4529C45.8564 44.1874 50.7802 45.678 56.976 45.678V43.678ZM39.272 30.118C39.272 27.0474 40.0637 24.6005 41.4204 22.7239C42.7783 20.8456 44.75 19.4729 47.2183 18.6327L46.5737 16.7393C43.778 17.6911 41.4377 19.2864 39.7996 21.5521C38.1603 23.8195 37.272 26.6926 37.272 30.118H39.272ZM47.896 17.686V0.774017H45.896V17.686H47.896ZM46.6608 -0.197937C39.524 1.52869 33.8243 5.08618 29.9147 10.2504C26.0076 15.4113 23.944 22.1027 23.944 30.006H25.944C25.944 22.4533 27.9124 16.2087 31.5093 11.4576C35.1037 6.70984 40.3799 3.37933 47.1311 1.74597L46.6608 -0.197937ZM23.944 30.006C23.944 39.206 27.1686 47.1461 32.9539 52.7861C38.7384 58.4251 47.0094 61.694 56.976 61.694V59.694C47.4546 59.694 39.7096 56.5789 34.3501 51.354C28.9914 46.1299 25.944 38.726 25.944 30.006H23.944Z" fill="#3BB77E" fill-opacity="0.5" mask="url(#path-1-outside-1_206_847)"/>
</svg>
